<svg width="332" height="332" viewBox="0 0 332 332" fill="none" xmlns="http://www.w3.org/2000/svg">
<path d="M20.523 166.004C20.5294 142.467 26.2449 119.283 37.179 98.4415C48.1131 77.5995 63.9394 59.7217 83.3001 46.3418C102.661 32.9618 124.978 24.4793 148.337 21.6219C171.696 18.7645 195.399 21.6175 217.413 29.9362C220.087 23.3499 224.168 17.4284 229.372 12.5868C196.691 -0.922551 160.55 -3.63909 126.217 4.83314C91.8841 13.3054 61.1542 32.5235 38.5063 59.6863C15.8585 86.849 2.4767 120.536 0.311512 155.838C-1.85368 191.14 7.31091 226.211 26.4694 255.938C30.2117 249.859 35.2208 244.659 41.1549 240.692C27.625 218.131 20.4925 192.312 20.523 166.004V166.004Z" fill="#F5A01D"/>
<path d="M304.212 74.1639C300.447 80.1819 295.426 85.3154 289.494 89.2132C305.609 115.177 313.141 145.557 311.021 176.044C308.902 206.531 297.238 235.576 277.685 259.059C258.132 282.543 231.682 299.272 202.087 306.875C172.493 314.478 141.256 312.567 112.808 301.415C109.889 307.937 105.571 313.737 100.159 318.403C133.007 332.586 169.558 335.775 204.364 327.492C239.171 319.209 270.37 299.899 293.311 272.44C316.252 244.98 329.708 210.842 331.672 175.112C333.637 139.382 324.005 103.973 304.212 74.1639V74.1639Z" fill="#F5A01D"/>
<path d="M263.572 76.5297C279.63 76.5297 292.648 63.5102 292.648 47.4498C292.648 31.3893 279.63 18.3698 263.572 18.3698C247.514 18.3698 234.497 31.3893 234.497 47.4498C234.497 63.5102 247.514 76.5297 263.572 76.5297Z" fill="#F5A01D"/>
<path d="M67.5687 311.798C83.6266 311.798 96.644 298.779 96.644 282.718C96.644 266.658 83.6266 253.638 67.5687 253.638C51.5109 253.638 38.4935 266.658 38.4935 282.718C38.4935 298.779 51.5109 311.798 67.5687 311.798Z" fill="#F5A01D"/>
<path d="M165.965 59.1805C144.847 59.174 124.201 65.4308 106.639 77.1597C89.0766 88.8887 75.3861 105.563 67.2986 125.074C59.2112 144.585 57.0901 166.056 61.2036 186.773C65.3171 207.49 75.4805 226.521 90.4084 241.461C105.336 256.4 124.358 266.577 145.069 270.704C165.78 274.831 187.249 272.723 206.762 264.646C226.275 256.569 242.955 242.887 254.693 225.328C266.43 207.77 272.699 187.125 272.705 166.004C272.71 151.98 269.952 138.093 264.59 125.135C259.228 112.176 251.367 100.402 241.455 90.482C231.544 80.5626 219.775 72.6928 206.823 67.322C193.87 61.9513 179.986 59.1848 165.965 59.1805V59.1805ZM190.572 212.664C183.607 218.228 173.937 221.01 161.562 221.01C151.095 221.169 140.732 218.92 131.272 214.438V193.474C137.191 196.227 143.321 198.502 149.604 200.276C154.066 201.525 158.67 202.199 163.304 202.28C167.329 202.535 171.335 201.537 174.769 199.422C176.088 198.446 177.142 197.156 177.836 195.67C178.53 194.184 178.842 192.548 178.745 190.911C178.769 188.912 178.159 186.956 177.003 185.325C175.517 183.497 173.714 181.95 171.681 180.758C167.175 178.023 162.513 175.554 157.719 173.365C152.447 171.06 147.499 168.078 143 164.493C139.783 161.741 137.128 158.394 135.181 154.635C133.153 150.557 132.15 146.045 132.257 141.492C132.052 137.283 132.809 133.082 134.471 129.21C136.134 125.339 138.657 121.897 141.85 119.148C148.421 113.759 157.16 111.032 168.462 111.032C173.824 111.006 179.168 111.669 184.363 113.003C189.855 114.431 195.226 116.288 200.428 118.556L193.102 136.168C188.502 134.207 183.77 132.571 178.942 131.273C175.342 130.37 171.647 129.907 167.936 129.892C164.396 129.657 160.892 130.72 158.08 132.883C156.985 133.859 156.122 135.068 155.553 136.421C154.985 137.774 154.726 139.237 154.795 140.703C154.75 142.555 155.241 144.38 156.207 145.96C157.368 147.679 158.866 149.143 160.61 150.265C165.157 153.035 169.863 155.537 174.704 157.757C184.691 162.554 191.547 167.351 195.27 172.149C199.069 177.243 201.026 183.475 200.822 189.827C201.026 194.171 200.204 198.502 198.423 202.469C196.643 206.437 193.953 209.929 190.572 212.664Z" fill="#02537C"/>
</svg>
